<svg width="20.454590" height="20.000000" viewBox="0 0 20.4546 20" fill="none" xmlns="http://www.w3.org/2000/svg" xmlns:xlink="http://www.w3.org/1999/xlink">
	<desc>
			Created with Pixso.
	</desc>
	<defs/>
	<path id="facebook" d="M10.92 20L1.12 20C0.5 20 0 19.5 0 18.89L0 1.1C0 0.49 0.5 0 1.12 0L19.32 0C19.94 0 20.45 0.49 20.45 1.1L20.45 18.89C20.45 19.5 19.94 20 19.32 20L14.11 20L14.11 12.25L16.77 12.25L17.17 9.23L14.11 9.23L14.11 7.3C14.11 6.43 14.36 5.84 15.64 5.84L17.27 5.83L17.27 3.13C16.99 3.1 16.02 3.02 14.89 3.02C12.53 3.02 10.92 4.42 10.92 7.01L10.92 9.23L8.25 9.23L8.25 12.25L10.92 12.25L10.92 20L10.92 20Z" fill="#FFFFFF" fill-opacity="1.000000" fill-rule="evenodd"/>
</svg>
