<svg width="20.454590" height="20.000000" viewBox="0 0 20.4546 20" fill="none" xmlns="http://www.w3.org/2000/svg" xmlns:xlink="http://www.w3.org/1999/xlink">
	<desc>
			Created with Pixso.
	</desc>
	<defs/>
	<path id="Instagram" d="M10.2273 0C7.44971 0 7.10144 0.0115051 6.01062 0.0601807C4.922 0.108719 4.17859 0.277786 3.52808 0.525009C2.85547 0.780518 2.28516 1.12245 1.71655 1.67839C1.14795 2.23436 0.798218 2.79204 0.536987 3.44962C0.284058 4.08569 0.111206 4.81262 0.0615234 5.87701C0.0117188 6.94362 0 7.28416 0 10C0 12.7158 0.0117188 13.0564 0.0615234 14.123C0.111206 15.1874 0.284058 15.9143 0.536987 16.5504C0.798218 17.208 1.14795 17.7656 1.71655 18.3216C2.28516 18.8775 2.85547 19.2195 3.52808 19.475C4.17859 19.7222 4.922 19.8913 6.01062 19.9398C7.10144 19.9885 7.44971 20 10.2273 20C13.0049 20 13.3531 19.9885 14.444 19.9398C15.5326 19.8913 16.276 19.7222 16.9265 19.475C17.599 19.2195 18.1694 18.8775 18.738 18.3216C19.3066 17.7656 19.6562 17.208 19.9176 16.5504C20.1704 15.9143 20.3434 15.1874 20.3929 14.123C20.4427 13.0564 20.4546 12.7158 20.4546 10C20.4546 7.28416 20.4427 6.94362 20.3929 5.87701C20.3434 4.81262 20.1704 4.08569 19.9176 3.44962C19.6562 2.79204 19.3066 2.23436 18.738 1.67839C18.1694 1.12245 17.599 0.780518 16.9265 0.525009C16.276 0.277786 15.5326 0.108719 14.444 0.0601807C13.3531 0.0115051 13.0049 0 10.2273 0ZM14.36 1.86011C13.2815 1.812 12.958 1.8018 10.2273 1.8018C7.49646 1.8018 7.17297 1.812 6.0946 1.86011C5.09741 1.90457 4.55591 2.06747 4.19556 2.20442C3.71814 2.38583 3.37744 2.60252 3.01953 2.95248C2.66162 3.3024 2.44006 3.63551 2.25452 4.10228C2.1145 4.45467 1.94788 4.98415 1.90234 5.95914C1.85315 7.0136 1.84277 7.3299 1.84277 10C1.84277 12.6701 1.85315 12.9864 1.90234 14.0409C1.94788 15.0159 2.1145 15.5453 2.25452 15.8977C2.44006 16.3645 2.66174 16.6976 3.01953 17.0475C3.37744 17.3975 3.71814 17.6142 4.19556 17.7956C4.55591 17.9325 5.09741 18.0954 6.0946 18.1399C7.17285 18.188 7.49634 18.1982 10.2273 18.1982C12.9583 18.1982 13.2817 18.188 14.36 18.1399C15.3572 18.0954 15.8987 17.9325 16.259 17.7956C16.7365 17.6142 17.0771 17.3975 17.4349 17.0475C17.7928 16.6976 18.0145 16.3645 18.2001 15.8977C18.3401 15.5453 18.5067 15.0159 18.5521 14.0409C18.6013 12.9864 18.6118 12.6701 18.6118 10C18.6118 7.3299 18.6013 7.0136 18.5521 5.95914C18.5067 4.98415 18.3401 4.45467 18.2001 4.10228C18.0145 3.63551 17.7928 3.3024 17.4349 2.95248C17.0771 2.60252 16.7365 2.38583 16.259 2.20442C15.8987 2.06747 15.3572 1.90457 14.36 1.86011ZM15.6865 5.86197C16.3644 5.86197 16.9138 5.32474 16.9138 4.66199C16.9138 3.99924 16.3644 3.46196 15.6865 3.46196C15.0088 3.46196 14.4594 3.99924 14.4594 4.66199C14.4594 5.32474 15.0088 5.86197 15.6865 5.86197ZM4.97546 10C4.97546 7.16393 7.32678 4.86487 10.2273 4.86487C13.1278 4.86487 15.4791 7.16393 15.4791 10C15.4791 12.8361 13.1278 15.1351 10.2273 15.1351C7.32678 15.1351 4.97546 12.8361 4.97546 10ZM6.81824 10C6.81824 11.841 8.34448 13.3333 10.2273 13.3333C12.1101 13.3333 13.6364 11.841 13.6364 10C13.6364 8.15904 12.1101 6.66667 10.2273 6.66667C8.34448 6.66667 6.81824 8.15904 6.81824 10Z" clip-rule="evenodd" fill="#FFFFFF" fill-opacity="1.000000" fill-rule="evenodd"/>
</svg>
