<svg width="28.000000" height="20.000000" viewBox="0 0 28 20" fill="none" xmlns="http://www.w3.org/2000/svg" xmlns:xlink="http://www.w3.org/1999/xlink">
	<desc>
			Created with Pixso.
	</desc>
	<defs/>
	<mask id="mask_1_366" fill="white">
		<path id="Play Button" d="M3.95044 0.321838C3.95044 0.321838 7.37354 0 13.9783 0C20.583 0 23.7173 0.321838 23.7173 0.321838C23.7173 0.321838 26.1196 0.406631 27.0587 2.22929C27.0587 2.22929 27.9977 3.55182 27.9977 10C27.9977 10 28.0542 13.9919 27.6094 16.1141C27.1643 18.2363 26.1818 18.8561 26.1818 18.8561C26.1818 18.8561 25.5515 19.4759 24.1611 19.6449C22.7708 19.8139 18.2625 20 13.9783 20C13.9783 20 6.1355 19.9955 3.49377 19.5531C0.851929 19.1108 0.480835 16.6115 0.480835 16.6115C0.480835 16.6115 -0.601074 10.2848 0.480835 3.39555C0.480835 3.39555 0.794067 0.643738 3.95044 0.321838ZM11.0168 13.6899L18.8293 9.84375L11.0168 5.99759L11.0168 13.6899Z" clip-rule="evenodd" fill="" fill-opacity="1.000000" fill-rule="evenodd"/>
	</mask>
	<path id="Play Button" d="M3.95044 0.321838C3.95044 0.321838 7.37354 0 13.9783 0C20.583 0 23.7173 0.321838 23.7173 0.321838C23.7173 0.321838 26.1196 0.406631 27.0587 2.22929C27.0587 2.22929 27.9977 3.55182 27.9977 10C27.9977 10 28.0542 13.9919 27.6094 16.1141C27.1643 18.2363 26.1818 18.8561 26.1818 18.8561C26.1818 18.8561 25.5515 19.4759 24.1611 19.6449C22.7708 19.8139 18.2625 20 13.9783 20C13.9783 20 6.1355 19.9955 3.49377 19.5531C0.851929 19.1108 0.480835 16.6115 0.480835 16.6115C0.480835 16.6115 -0.601074 10.2848 0.480835 3.39555C0.480835 3.39555 0.794067 0.643738 3.95044 0.321838ZM11.0168 13.6899L18.8293 9.84375L11.0168 5.99759L11.0168 13.6899Z" clip-rule="evenodd" fill="#FFFFFF" fill-opacity="1.000000" fill-rule="evenodd" mask="url(#mask_1_366)"/>
	<path id="Play Button" d="" clip-rule="evenodd" fill="#210000" fill-opacity="0.000000" fill-rule="evenodd"/>
</svg>
