<?xml version="1.0" standalone="no"?>
<!DOCTYPE svg PUBLIC "-//W3C//DTD SVG 20010904//EN"
 "http://www.w3.org/TR/2001/REC-SVG-20010904/DTD/svg10.dtd">
<svg version="1.0" xmlns="http://www.w3.org/2000/svg"
 width="512.000000pt" height="512.000000pt" viewBox="0 0 512.000000 512.000000"
 preserveAspectRatio="xMidYMid meet">
<metadata>
Created by potrace 1.14, written by Peter Selinger 2001-2017
</metadata>
<g transform="translate(0.000000,512.000000) scale(0.100000,-0.100000)"
fill="#000000" stroke="none">
<path d="M2778 4405 c-1 -1 -56 -5 -120 -9 -294 -16 -607 -121 -861 -291 -54
-36 -100 -65 -102 -65 -2 0 -16 12 -30 26 l-27 27 51 51 c28 28 51 55 51 58 0
4 -80 7 -177 8 -98 1 -216 3 -263 4 -47 1 -90 0 -96 -2 -8 -2 -10 -39 -7 -115
2 -62 5 -184 7 -272 2 -88 4 -166 5 -172 1 -7 25 13 55 45 l55 57 25 -24 24
-23 -38 -51 c-21 -28 -54 -77 -72 -110 -18 -32 -38 -64 -44 -70 -5 -7 -13 -20
-17 -31 -6 -14 -13 -17 -35 -11 -15 4 -28 8 -29 9 -2 1 8 35 21 74 13 40 20
72 16 72 -7 0 -128 -52 -250 -107 -36 -16 -104 -47 -153 -68 -48 -22 -87 -42
-87 -46 0 -3 55 -120 123 -259 l124 -252 22 63 c12 35 24 69 26 76 5 14 45 5
51 -12 3 -6 0 -32 -5 -56 -9 -41 -21 -148 -26 -229 -3 -48 -1 -45 -35 -48 -29
-2 -30 -1 -32 40 -1 24 -2 50 -4 58 -1 8 -2 26 -3 38 -1 26 2 28 -78 -64 -10
-11 -46 -52 -80 -90 -34 -38 -71 -80 -83 -94 -47 -55 -57 -67 -92 -106 l-37
-41 90 -73 c50 -40 96 -78 102 -84 7 -6 67 -55 133 -108 l122 -97 -4 42 c-2
23 -6 58 -8 78 -4 32 -2 37 17 41 31 6 47 -1 47 -20 0 -21 79 -255 91 -266 16
-17 10 -44 -12 -51 -11 -4 -22 -5 -23 -3 -1 1 -19 29 -40 61 -21 32 -39 57
-41 55 -3 -3 -50 -180 -60 -223 -2 -11 -20 -80 -40 -153 -19 -73 -35 -137 -35
-142 0 -7 116 -37 210 -55 49 -9 66 -13 105 -24 22 -5 54 -13 70 -15 17 -3 59
-12 95 -20 36 -7 67 -12 68 -10 2 1 -12 26 -30 56 -19 29 -37 58 -41 65 -5 7
1 17 13 23 18 10 24 7 42 -15 27 -34 145 -153 183 -185 42 -35 48 -46 33 -70
-17 -27 -23 -26 -77 13 -78 56 -74 56 -67 -3 4 -29 11 -82 16 -119 10 -69 14
-104 25 -184 4 -27 9 -59 11 -70 3 -12 6 -42 8 -67 3 -42 5 -45 32 -46 16 0
42 3 58 8 16 4 48 10 70 13 23 3 48 8 56 10 8 2 35 7 60 10 25 4 77 12 115 20
39 7 90 17 115 20 25 4 49 9 53 12 4 3 -14 20 -40 38 -85 60 -83 57 -48 99
l24 30 73 -28 c40 -16 82 -32 93 -37 24 -10 165 -49 203 -55 15 -3 34 -7 42
-9 72 -20 432 -28 560 -12 93 12 292 62 380 96 154 59 317 147 422 226 32 25
60 45 62 45 9 0 103 86 185 170 267 271 437 631 488 1030 9 71 9 363 -1 415
-3 22 -9 58 -12 80 -24 197 -138 490 -270 691 -153 236 -389 452 -646 592
-221 120 -477 194 -723 208 -55 3 -105 7 -112 9 -6 2 -13 2 -15 0z m112 -89
c412 -26 782 -192 1076 -481 171 -168 266 -300 359 -497 78 -166 133 -360 152
-533 13 -124 7 -376 -12 -465 -3 -14 -10 -52 -16 -84 -36 -200 -165 -480 -308
-671 -101 -135 -341 -351 -481 -434 -83 -48 -298 -146 -341 -155 -8 -2 -21 -6
-29 -9 -20 -8 -165 -43 -210 -51 -100 -17 -148 -20 -295 -20 -168 -1 -230 5
-354 30 -86 17 -319 92 -326 105 -3 4 10 30 30 57 19 27 35 52 35 55 0 3 -17
16 -37 28 -21 13 -40 26 -43 29 -9 10 -271 191 -284 196 -9 3 -30 -18 -56 -55
-24 -34 -47 -61 -52 -61 -10 0 -206 189 -218 211 -7 12 7 26 66 63 45 29 71
53 67 60 -3 6 -24 37 -45 68 -21 31 -38 61 -38 67 0 5 -4 11 -8 13 -4 2 -39
54 -78 115 l-71 113 -69 -45 c-38 -24 -72 -45 -76 -45 -10 0 -32 53 -69 164
-39 119 -39 126 11 127 22 1 45 3 50 4 6 1 24 3 41 4 l30 1 -6 58 c-3 31 -8
71 -10 87 -5 38 -12 109 -20 205 -9 109 -10 110 -53 105 -46 -4 -104 -7 -118
-6 -5 1 -9 13 -8 29 4 64 15 169 20 197 3 17 7 35 8 42 4 24 16 24 91 -1 43
-14 79 -26 80 -26 2 0 9 22 21 65 1 6 30 89 63 185 33 96 61 178 61 181 0 3
-30 16 -67 29 -38 12 -72 26 -77 31 -8 7 22 71 37 77 4 2 7 8 7 14 0 11 100
158 108 158 2 0 30 -25 60 -55 l56 -55 59 62 c33 35 105 110 159 167 l100 103
-53 54 c-29 29 -51 55 -48 57 138 106 331 204 508 259 75 23 85 26 171 43 99
20 127 24 230 31 52 3 97 8 98 9 2 2 9 2 15 0 7 -2 55 -6 107 -9z"/>
<path d="M2979 3966 c-2 -2 -31 -6 -64 -10 -90 -10 -125 -15 -145 -21 -10 -3
-27 -8 -37 -10 -10 -2 -52 -11 -93 -20 -41 -9 -86 -18 -99 -19 -13 -2 -26 -8
-30 -14 -3 -5 -94 -55 -201 -110 -129 -66 -195 -105 -195 -115 0 -9 -20 -38
-45 -64 -155 -165 -313 -450 -345 -623 -40 -222 -38 -333 11 -590 8 -41 16
-83 18 -93 1 -9 13 -31 25 -48 13 -17 20 -33 17 -36 -3 -3 25 -48 61 -101 59
-86 64 -97 49 -108 -11 -7 -13 -13 -6 -16 7 -2 15 -19 20 -38 6 -27 8 -30 9
-11 1 24 1 24 17 5 15 -18 15 -18 9 4 -9 31 0 27 24 -11 28 -45 104 -118 174
-167 32 -22 60 -40 63 -40 3 0 20 -11 37 -24 62 -46 184 -105 362 -176 99 -40
183 -77 187 -83 4 -7 8 -7 8 -2 0 6 63 10 168 10 131 1 180 5 227 19 101 31
106 29 120 -32 7 -29 15 -55 17 -58 4 -4 17 35 34 101 10 44 28 63 80 91 226
119 267 148 394 274 177 175 310 428 356 676 18 98 29 354 16 354 -7 0 -28 53
-38 95 -11 49 -110 336 -126 364 -97 176 -229 327 -363 417 -145 98 -336 179
-490 209 -16 3 -41 8 -55 10 -33 7 -166 15 -171 11z m522 -173 c13 -16 12 -17
-3 -4 -17 13 -22 21 -14 21 2 0 10 -8 17 -17z m40 -30 c13 -16 12 -17 -3 -4
-17 13 -22 21 -14 21 2 0 10 -8 17 -17z m-476 -16 c17 -4 50 -9 75 -12 55 -7
71 -10 90 -18 8 -3 40 -11 70 -17 30 -7 65 -18 77 -26 26 -16 37 -18 28 -4 -3
5 19 -2 49 -15 51 -23 54 -23 49 -4 -10 37 19 20 113 -66 18 -16 46 -40 61
-52 59 -45 91 -80 131 -140 l42 -62 -37 -28 c-21 -15 -44 -34 -52 -41 -8 -8
-37 -31 -65 -52 -86 -66 -159 -124 -221 -174 -67 -54 -64 -56 -112 39 -82 160
-108 334 -74 504 6 29 11 55 11 57 0 6 -44 5 -77 -2 -25 -5 -33 -13 -43 -47
-20 -68 -22 -79 -25 -179 -5 -142 22 -245 107 -410 23 -46 43 -86 43 -90 0 -3
-20 -28 -45 -55 -25 -26 -63 -70 -85 -98 -22 -27 -43 -52 -46 -55 -13 -11
-121 -202 -116 -206 22 -22 153 90 267 228 85 103 76 104 171 -23 88 -119 89
-121 76 -232 -19 -164 -102 -329 -211 -419 -60 -50 -106 -76 -188 -105 -67
-25 -85 -27 -208 -26 -74 1 -142 3 -150 5 -131 34 -201 82 -374 253 -127 126
-199 249 -242 415 -18 70 -22 107 -19 205 1 66 6 143 10 171 7 51 7 51 -21 57
-30 6 -90 -25 -91 -47 -1 -6 -5 -31 -9 -56 -38 -212 51 -509 216 -725 21 -27
159 -165 191 -190 63 -49 176 -110 263 -141 62 -21 76 -31 77 -48 0 -11 2 -29
4 -39 2 -10 6 -54 9 -98 l7 -80 -28 7 c-270 58 -581 264 -735 484 -81 117 -91
163 -92 423 0 97 -3 177 -7 177 -4 0 -8 -8 -7 -17 2 -129 -6 -353 -12 -353 -4
0 -11 19 -15 43 -4 23 -9 47 -11 52 -2 6 -8 26 -13 45 -5 19 -17 60 -26 90
-22 76 -27 210 -9 290 7 36 16 76 19 90 36 177 43 203 48 185 12 -39 21 -171
20 -292 0 -68 3 -123 7 -123 4 0 8 96 9 213 2 285 3 293 79 412 46 74 208 240
245 251 12 3 94 33 182 66 247 93 267 98 383 104 59 3 108 7 109 8 5 4 97 -1
128 -7z m525 -19 c0 -6 -6 -5 -15 2 -8 7 -15 14 -15 16 0 2 7 1 15 -2 8 -4 15
-11 15 -16z m115 -103 c28 -26 34 -35 15 -20 -54 43 -106 91 -115 106 -9 15
23 -12 100 -86z m253 -459 c29 -61 81 -210 87 -251 2 -11 11 -51 20 -88 81
-343 -10 -650 -270 -913 -157 -158 -362 -264 -600 -310 -81 -15 -246 -21 -315
-10 -14 2 -35 4 -48 5 -17 1 -22 6 -18 19 4 16 18 131 19 160 0 9 4 9 11 2 14
-14 26 -13 26 3 1 31 19 39 91 42 83 3 102 6 212 42 240 77 401 252 443 483 9
47 18 90 19 97 3 8 16 7 49 -6 25 -9 48 -20 52 -24 4 -4 14 -7 23 -7 12 0 12
3 3 12 -7 7 -12 18 -12 25 0 8 -23 48 -52 90 -28 43 -54 91 -58 108 -3 16 -9
28 -12 25 -4 -3 -41 44 -83 105 -52 74 -74 113 -69 122 10 14 435 332 445 333
4 0 20 -29 37 -64z"/>
<path d="M3014 3664 c-26 -20 -137 -126 -246 -236 -151 -152 -202 -197 -209
-187 -5 8 -9 19 -9 24 0 15 -68 192 -91 236 l-19 39 -39 -20 c-27 -13 -38 -25
-36 -37 19 -93 43 -174 77 -260 34 -87 38 -104 27 -116 -46 -47 -114 -130
-112 -137 2 -5 -22 -46 -52 -92 -48 -73 -65 -108 -51 -108 2 0 66 62 141 139
l136 138 107 -107 c114 -114 151 -139 213 -145 21 -2 48 -7 59 -10 11 -3 20
-3 20 2 0 4 -51 57 -114 118 -63 60 -133 137 -156 170 l-41 60 243 240 c237
233 244 241 247 283 2 39 1 42 -22 42 -14 0 -47 -16 -73 -36z"/>
<path d="M1915 1881 c-3 -5 -2 -12 3 -15 5 -3 9 1 9 9 0 17 -3 19 -12 6z"/>
</g>
</svg>
